Coordinates
nRows=286
nColumns=2
inDegrees=yes
endheader
time	ankle_angle_r	
3.72581	 18.543201	
3.75907	 18.440716	
3.79234	 18.371582	
3.8256	 18.478394	
3.85887	 18.432617	
3.89214	 18.508911	
3.9254	 18.441553	
3.95867	 18.454296	
3.99194	 18.476168	
4.0252	 18.561300	
4.05847	 18.524170	
4.09173	 18.454681	
4.125	 18.583752	
4.15827	 18.493652	
4.19153	 18.485489	
4.2248	 18.499971	
4.25806	 18.455166	
4.29133	 18.486265	
4.3246	 18.500843	
4.35786	 18.508911	
4.39113	 18.417358	
4.4244	 18.463423	
4.45766	 18.478874	
4.49093	 18.424650	
4.52419	 18.501715	
4.55746	 18.448936	
4.59073	 18.433870	
4.62399	 18.454782	
4.65726	 18.417358	
4.69052	 18.471682	
4.72379	 18.485010	
4.75706	 18.526390	
4.79032	 18.471972	
4.82359	 18.533104	
4.85685	 18.463135	
4.89012	 18.502779	
4.92339	 18.481581	
4.95665	 18.457195	
4.98992	 18.497227	
5.02319	 18.484138	
5.05645	 18.417358	
5.08972	 18.493652	
5.12298	 18.478394	
5.15625	 18.421900	
5.18952	 18.473131	
5.22278	 18.503983	
5.25605	 18.488531	
5.28931	 18.427645	
5.32258	 18.478394	
5.35585	 18.498430	
5.38911	 18.427935	
5.42238	 18.467720	
5.45565	 18.478394	
5.48891	 18.428225	
5.52218	 18.467430	
5.55544	 18.463135	
5.58871	 18.454931	
5.62198	 18.421364	
5.65524	 18.447876	
5.68851	 18.409723	
5.72177	 18.417358	
5.75504	 18.383223	
5.78831	 18.359844	
5.82157	 18.474968	
5.85484	 18.356323	
5.8881	 18.353092	
5.92137	 18.402100	
5.95464	 18.374620	
5.9879	 18.420300	
6.02117	 18.386841	
6.05444	 18.389589	
6.0877	 18.343716	
6.12097	 18.478394	
6.15423	 18.424732	
6.1875	 18.437340	
6.22077	 18.447876	
6.25403	 18.384672	
6.2873	 18.419430	
6.32056	 18.447876	
6.35383	 18.449755	
6.3871	 18.434399	
6.42036	 18.383471	
6.45363	 18.415770	
6.4869	 18.388332	
6.52016	 18.385447	
6.55343	 18.403397	
6.58669	 18.403301	
6.61996	 18.402100	
6.65323	 18.373598	
6.68649	 18.416447	
6.71976	 18.432617	
6.75302	 18.416641	
6.78629	 18.430754	
6.81956	 18.434191	
6.85282	 18.417358	
6.88609	 18.417358	
6.91935	 18.448111	
6.95262	 18.463135	
6.98589	 18.432699	
7.01915	 18.432562	
7.05242	 18.402100	
7.08569	 18.508661	
7.11895	 18.524862	
7.15222	 18.523285	
7.18548	 18.507833	
7.21875	 18.461863	
7.25202	 18.447876	
7.28528	 18.445389	
7.31855	 18.493652	
7.35181	 18.448898	
7.38508	 18.476154	
7.41835	 18.522955	
7.45161	 18.475769	
7.48488	 18.415949	
7.51815	 18.553181	
7.55141	 18.459930	
7.58468	 18.522470	
7.61794	 18.459543	
7.65121	 18.417358	
7.68448	 18.476404	
7.71774	 18.404186	
7.75101	 18.476212	
7.78427	 18.508911	
7.81754	 18.493652	
7.85081	 18.536957	
7.88407	 18.536860	
7.91734	 18.508911	
7.9506	 18.536665	
7.98387	 18.533710	
8.01714	 18.466091	
8.0504	 18.475340	
8.08367	 18.554688	
8.11694	 18.432617	
8.1502	 18.566603	
8.18347	 18.490213	
8.21673	 18.558224	
8.25	 18.535069	
8.28327	 18.547228	
8.31653	 18.527996	
8.3498	 18.379429	
8.38306	 18.585205	
8.41633	 18.504795	
8.4496	 18.474180	
8.48286	 18.539429	
8.51613	 18.478394	
8.5494	 18.432617	
8.58266	 18.508911	
8.61593	 18.508911	
8.64919	 18.529842	
8.68246	 18.452766	
8.71573	 18.524170	
8.74899	 18.473310	
8.78226	 18.524170	
8.81552	 18.549410	
8.84879	 18.473021	
8.88206	 18.474075	
8.91532	 18.497778	
8.94859	 18.457472	
8.98185	 18.444138	
9.01512	 18.548830	
9.04839	 18.514864	
9.08165	 18.527061	
9.11492	 18.539429	
9.14819	 18.441633	
9.18145	 18.417358	
9.21472	 18.454313	
9.24798	 18.463135	
9.28125	 18.443243	
9.31452	 18.424086	
9.34778	 18.508911	
9.38105	 18.508911	
9.41431	 18.501894	
9.44758	 18.508911	
9.48085	 18.546638	
9.51411	 18.494297	
9.54738	 18.524622	
9.58065	 18.501152	
9.61391	 18.569946	
9.64718	 18.524170	
9.68044	 18.471247	
9.71371	 18.516798	
9.74698	 18.471119	
9.78024	 18.516088	
9.81351	 18.471312	
9.84677	 18.515896	
9.88004	 18.446394	
9.91331	 18.524170	
9.94657	 18.493652	
9.97984	 18.522108	
10.0131	 18.480650	
10.0464	 18.447876	
10.0796	 18.472086	
10.1129	 18.508911	
10.1462	 18.499767	
10.1794	 18.563929	
10.2127	 18.566530	
10.246	 18.588814	
10.2792	 18.629057	
10.3125	 18.625351	
10.3458	 18.600464	
10.379	 18.640802	
10.4123	 18.595123	
10.4456	 18.554688	
10.4788	 18.635944	
10.5121	 18.519119	
10.5454	 18.554688	
10.5786	 18.473536	
10.6119	 18.509888	
10.6452	 18.452539	
10.6784	 18.513479	
10.7117	 18.412888	
10.745	 18.452250	
10.7782	 18.454580	
10.8115	 18.493652	
10.8448	 18.432617	
10.878	 18.428629	
10.9113	 18.424835	
10.9446	 18.386841	
10.9778	 18.459436	
11.0111	 18.444275	
11.0444	 18.356323	
11.0776	 18.512318	
11.1109	 18.451187	
11.1442	 18.439045	
11.1774	 18.502676	
11.2107	 18.466156	
11.244	 18.521246	
11.2772	 18.493652	
11.3105	 18.435349	
11.3437	 18.493652	
11.377	 18.491116	
11.4103	 18.417358	
11.4435	 18.445532	
11.4768	 18.458641	
11.5101	 18.480543	
11.5433	 18.447876	
11.5766	 18.480350	
11.6099	 18.446016	
11.6431	 18.369818	
11.6764	 18.493652	
11.7097	 18.373152	
11.7429	 18.359270	
11.7762	 18.510288	
11.8095	 18.465696	
11.8427	 18.385656	
11.876	 18.508911	
11.9093	 18.508911	
11.9425	 18.492758	
11.9758	 18.463135	
12.0091	 18.386141	
12.0423	 18.432617	
12.0756	 18.493652	
12.1089	 18.416948	
12.1421	 18.447876	
12.1754	 18.463135	
12.2087	 18.447996	
12.2419	 18.402147	
12.2752	 18.524097	
12.3085	 18.448215	
12.3417	 18.478394	
12.375	 18.492926	
12.4083	 18.478853	
12.4415	 18.402100	
12.4748	 18.433271	
12.5081	 18.507412	
12.5413	 18.460594	
12.5746	 18.508911	
12.6079	 18.389961	
12.6411	 18.474983	
12.6744	 18.508911	
12.7077	 18.463135	
12.7409	 18.507484	
12.7742	 18.447876	
12.8075	 18.520929	
12.8407	 18.520737	
12.874	 18.491838	
12.9073	 18.493652	
12.9405	 18.550674	
12.9738	 18.535221	
13.0071	 18.491451	
13.0403	 18.508911	
13.0736	 18.476000	
13.1069	 18.536938	
13.1401	 18.508911	
13.1734	 18.460451	
13.2067	 18.481174	
